<?xml version="1.0" standalone="no"?>
<svg xmlns="http://www.w3.org/2000/svg" viewBox="0 0 212.72988235294122 48" width="212.72988235294122" height="48"><rect fill="none" stroke="#ffffff" stroke-width="3" width="209.72988235294122" height="45" x="1.5" y="1.5"></rect><g fill="#ffffff" color="#ffffff" transform="translate(12, 12) scale(0.4705883)"><svg width="44.0" height="51.0" x="0.0" y="0.0" viewBox="0 0 44 51"><path fill="currentColor" fill-rule="evenodd" d="M21.998 0L0 12.571v25.143l4.19 2.395V15.002L21.999 4.827 39.81 15.002v20.28L21.998 45.459l-9.427-5.388V19.865l9.427-5.386 9.43 5.386v10.553l-9.43 5.387-1.045-.597V24.73l5.268-3.012-4.223-2.413-5.236 2.994v15.34l5.236 2.993 13.62-7.784V17.435l-13.62-7.781-13.617 7.78v25.068l13.617 7.784L44 37.714V12.571z"></path></svg></g><path fill="#ffffff" fill-rule="nonzero" d="M11.98 16.82L0 16.82L0 16.58L0.55 16.37Q0.96 16.20 1.12 15.92Q1.27 15.65 1.27 15.17L1.27 15.17L1.27 2.64Q1.27 2.16 1.14 1.88Q1.01 1.61 0.55 1.44L0.55 1.44L0 1.22L0 0.98L11.50 0.98L11.64 4.68L11.40 4.68L10.37 2.42Q10.15 1.99 9.91 1.73Q9.67 1.46 9.19 1.46L9.19 1.46L4.87 1.46L4.87 8.40L7.44 8.40Q7.92 8.40 8.17 8.15Q8.42 7.90 8.62 7.46L8.62 7.46L9.10 6.50L9.34 6.50L9.34 10.82L9.10 10.82L8.62 9.82Q8.40 9.38 8.16 9.13Q7.92 8.88 7.44 8.88L7.44 8.88L4.87 8.88L4.87 16.34L9.72 16.34Q10.20 16.34 10.46 16.09Q10.73 15.84 10.90 15.38L10.90 15.38L11.88 13.13L12.12 13.13L11.98 16.82ZM16.70 16.82L13.10 16.82L13.10 16.58L13.73 16.44Q14.28 16.32 14.63 16.07Q14.98 15.82 15.29 15.36L15.29 15.36L17.88 11.64L14.62 6.46Q14.38 6.10 14.18 5.90Q13.99 5.71 13.58 5.62L13.58 5.62L13.25 5.52L13.25 5.28L19.34 5.28L19.34 5.52L18.94 5.62Q18.10 5.88 18.60 6.67L18.60 6.67L20.57 9.72L22.70 6.77Q22.97 6.36 22.96 6.08Q22.94 5.81 22.49 5.69L22.49 5.69L21.89 5.52L21.89 5.28L25.39 5.28L25.39 5.52L24.82 5.66Q24.29 5.81 24 6.04Q23.71 6.26 23.38 6.74L23.38 6.74L20.86 10.15L24.14 15.26Q24.74 16.20 25.75 16.46L25.75 16.46L26.14 16.58L26.14 16.82L19.51 16.82L19.51 16.58L19.92 16.49Q20.33 16.39 20.44 16.09Q20.54 15.79 20.30 15.41L20.30 15.41L18.19 12.12L15.91 15.43Q15.62 15.82 15.73 16.09Q15.84 16.37 16.22 16.46L16.22 16.46L16.70 16.58L16.70 16.82ZM32.74 22.34L26.90 22.34L26.90 22.10L27.19 22.01Q28.08 21.77 28.08 20.86L28.08 20.86L28.08 7.80Q28.08 7.27 27.90 7.01Q27.72 6.74 27.24 6.65L27.24 6.65L26.90 6.58L26.90 6.34L30.98 4.94L31.22 5.18L31.44 5.93Q32.23 5.45 33.20 5.18Q34.18 4.92 35.21 4.92L35.21 4.92Q37.27 4.92 38.48 6.49Q39.70 8.06 39.70 10.99L39.70 10.99Q39.70 13.87 38.36 15.53Q37.03 17.18 34.61 17.18L34.61 17.18Q32.71 17.18 31.42 16.63L31.42 16.63L31.42 20.78Q31.42 21.74 32.28 21.98L32.28 21.98L32.74 22.10L32.74 22.34ZM33.46 16.49L33.46 16.49Q34.66 16.49 35.36 15.24Q36.07 13.99 36.07 11.09L36.07 11.09Q36.07 8.18 35.40 7.02Q34.73 5.86 33.46 5.86L33.46 5.86Q32.57 5.86 31.49 6.43L31.49 6.43L31.49 16.10Q32.40 16.49 33.46 16.49ZM46.58 16.82L40.85 16.82L40.85 16.58L41.14 16.49Q42 16.20 42 15.29L42 15.29L42 2.45Q42 1.97 41.81 1.72Q41.62 1.46 41.14 1.34L41.14 1.34L40.82 1.27L40.82 1.03L45.22 0L45.50 0.22L45.41 3.58L45.41 11.78Q45.41 12.67 45.42 13.55Q45.43 14.42 45.43 15.29L45.43 15.29Q45.43 15.77 45.62 16.07Q45.82 16.37 46.27 16.51L46.27 16.51L46.58 16.58L46.58 16.82ZM50.52 3.67L50.52 3.67Q49.70 3.67 49.14 3.16Q48.58 2.64 48.58 1.85L48.58 1.85Q48.58 1.03 49.14 0.53Q49.70 0.02 50.52 0.02L50.52 0.02Q51.34 0.02 51.89 0.53Q52.44 1.03 52.44 1.85L52.44 1.85Q52.44 2.64 51.89 3.16Q51.34 3.67 50.52 3.67ZM53.30 16.82L47.69 16.82L47.69 16.58L48.02 16.49Q48.50 16.34 48.68 16.06Q48.86 15.77 48.86 15.29L48.86 15.29L48.86 7.78Q48.86 7.27 48.68 7.02Q48.50 6.77 48.02 6.67L48.02 6.67L47.69 6.60L47.69 6.36L52.08 4.94L52.32 5.18L52.25 8.59L52.25 15.31Q52.25 15.79 52.43 16.08Q52.61 16.37 53.06 16.51L53.06 16.51L53.30 16.58L53.30 16.82ZM60.31 17.18L60.31 17.18Q58.68 17.18 57.35 16.48Q56.02 15.77 55.24 14.41Q54.46 13.06 54.46 11.09L54.46 11.09Q54.46 9.14 55.31 7.76Q56.16 6.38 57.59 5.65Q59.02 4.92 60.72 4.92L60.72 4.92Q62.11 4.92 63.07 5.38Q64.03 5.83 64.54 6.56Q65.04 7.30 65.04 8.09L65.04 8.09Q65.04 8.76 64.63 9.13Q64.22 9.50 63.58 9.50L63.58 9.50Q62.88 9.50 62.45 9.00Q62.02 8.50 61.94 7.68L61.94 7.68Q61.92 7.15 61.97 6.78Q62.02 6.41 61.97 6.02L61.97 6.02Q61.87 5.62 61.67 5.48Q61.46 5.35 61.10 5.35L61.10 5.35Q59.64 5.35 58.84 6.62Q58.03 7.90 58.03 10.68L58.03 10.68Q58.03 13.10 58.93 14.39Q59.83 15.67 61.70 15.67L61.70 15.67Q62.83 15.67 63.53 15.26Q64.22 14.86 64.87 14.04L64.87 14.04L65.11 14.23Q64.51 15.65 63.26 16.42Q62.02 17.18 60.31 17.18ZM69.10 3.67L69.10 3.67Q68.28 3.67 67.72 3.16Q67.15 2.64 67.15 1.85L67.15 1.85Q67.15 1.03 67.72 0.53Q68.28 0.02 69.10 0.02L69.10 0.02Q69.91 0.02 70.46 0.53Q71.02 1.03 71.02 1.85L71.02 1.85Q71.02 2.64 70.46 3.16Q69.91 3.67 69.10 3.67ZM71.88 16.82L66.26 16.82L66.26 16.58L66.60 16.49Q67.08 16.34 67.26 16.06Q67.44 15.77 67.44 15.29L67.44 15.29L67.44 7.78Q67.44 7.27 67.26 7.02Q67.08 6.77 66.60 6.67L66.60 6.67L66.26 6.60L66.26 6.36L70.66 4.94L70.90 5.18L70.82 8.59L70.82 15.31Q70.82 15.79 71.00 16.08Q71.18 16.37 71.64 16.51L71.64 16.51L71.88 16.58L71.88 16.82ZM77.50 17.18L77.50 17.18Q75.96 17.18 75.11 16.42Q74.26 15.65 74.26 13.97L74.26 13.97L74.26 5.76L72.60 5.76L72.60 5.52L73.18 5.42Q73.92 5.26 74.46 4.94Q75.00 4.63 75.53 4.10L75.53 4.10L77.50 1.92L77.74 1.92L77.66 5.28L80.35 5.28L80.35 5.76L77.64 5.76L77.64 14.40Q77.64 15.24 78.01 15.67Q78.38 16.10 78.96 16.10L78.96 16.10Q79.46 16.10 79.85 15.85Q80.23 15.60 80.62 15.17L80.62 15.17L80.86 15.41Q80.38 16.22 79.54 16.70Q78.70 17.18 77.50 17.18ZM87.74 16.82L81.65 16.82L81.65 16.58L82.08 16.42Q82.56 16.22 82.74 15.94Q82.92 15.65 82.92 15.17L82.92 15.17L82.92 2.64Q82.92 2.14 82.74 1.85Q82.56 1.56 82.08 1.39L82.08 1.39L81.65 1.22L81.65 0.98L88.54 0.98Q91.46 0.98 92.76 2.05Q94.06 3.12 94.06 4.75L94.06 4.75Q94.06 5.98 93.11 6.97Q92.16 7.97 89.86 8.38L89.86 8.38Q92.50 8.66 93.72 9.76Q94.94 10.85 94.94 12.41L94.94 12.41Q94.94 13.18 94.61 13.96Q94.27 14.74 93.47 15.38Q92.66 16.03 91.27 16.43Q89.88 16.82 87.74 16.82L87.74 16.82ZM86.47 1.46L86.47 8.35L87.50 8.35Q89.11 8.35 89.82 7.61Q90.53 6.86 90.53 5.02L90.53 5.02Q90.53 3.10 89.88 2.28Q89.23 1.46 87.77 1.46L87.77 1.46L86.47 1.46ZM86.47 8.83L86.47 16.34L87.67 16.34Q89.47 16.34 90.35 15.38Q91.22 14.42 91.22 12.38L91.22 12.38Q91.22 10.46 90.38 9.65Q89.54 8.83 87.62 8.83L87.62 8.83L86.47 8.83ZM102.17 16.82L95.95 16.82L95.95 16.58L96.31 16.49Q96.79 16.34 96.97 16.06Q97.15 15.77 97.15 15.31L97.15 15.31L97.15 7.80Q97.15 7.27 96.97 7.02Q96.79 6.77 96.31 6.67L96.31 6.67L95.95 6.58L95.95 6.34L100.08 4.94L100.32 5.18L100.54 7.25L100.54 7.44Q100.87 6.77 101.41 6.20Q101.95 5.64 102.61 5.28Q103.27 4.92 103.92 4.92L103.92 4.92Q104.83 4.92 105.31 5.42Q105.79 5.93 105.79 6.70L105.79 6.70Q105.79 7.51 105.32 7.96Q104.86 8.40 104.21 8.40L104.21 8.40Q103.20 8.40 102.43 7.39L102.43 7.39L102.38 7.34Q102.14 7.01 101.83 6.97Q101.52 6.94 101.26 7.27L101.26 7.27Q101.02 7.49 100.86 7.79Q100.70 8.09 100.56 8.47L100.56 8.47L100.56 15.17Q100.56 16.13 101.40 16.37L101.40 16.37L102.17 16.58L102.17 16.82ZM110.04 17.18L110.04 17.18Q108.65 17.18 107.70 16.39Q106.75 15.60 106.75 14.11L106.75 14.11Q106.75 12.98 107.90 12.04Q109.06 11.09 111.53 10.61L111.53 10.61Q111.91 10.54 112.39 10.45Q112.87 10.37 113.40 10.27L113.40 10.27L113.40 8.38Q113.40 6.74 113.00 6.08Q112.61 5.42 111.77 5.42L111.77 5.42Q111.19 5.42 110.86 5.80Q110.52 6.17 110.42 7.08L110.42 7.08L110.38 7.34Q110.33 8.38 109.87 8.86Q109.42 9.34 108.74 9.34L108.74 9.34Q108.12 9.34 107.71 8.95Q107.30 8.57 107.30 7.92L107.30 7.92Q107.30 6.94 107.99 6.26Q108.67 5.59 109.80 5.26Q110.93 4.92 112.25 4.92L112.25 4.92Q114.38 4.92 115.55 5.96Q116.71 7.01 116.71 9.36L116.71 9.36L116.71 14.66Q116.71 15.74 117.72 15.74L117.72 15.74L118.25 15.74L118.46 15.94Q118.01 16.51 117.47 16.82Q116.93 17.14 115.94 17.14L115.94 17.14Q114.89 17.14 114.28 16.64Q113.66 16.15 113.47 15.34L113.47 15.34Q112.75 16.10 112.00 16.64Q111.24 17.18 110.04 17.18ZM111.50 15.72L111.50 15.72Q111.98 15.72 112.40 15.49Q112.82 15.26 113.40 14.78L113.40 14.78L113.40 10.75Q113.16 10.80 112.92 10.85Q112.68 10.90 112.37 10.94L112.37 10.94Q111.26 11.23 110.60 11.92Q109.94 12.60 109.94 13.75L109.94 13.75Q109.94 14.74 110.40 15.23Q110.86 15.72 111.50 15.72ZM124.61 16.82L118.97 16.82L118.97 16.58L119.30 16.49Q120.14 16.25 120.14 15.31L120.14 15.31L120.14 7.80Q120.14 7.27 119.98 7.02Q119.81 6.77 119.33 6.67L119.33 6.67L118.97 6.58L118.97 6.34L123.07 4.94L123.31 5.18L123.50 6.62Q124.34 5.88 125.40 5.40Q126.46 4.92 127.49 4.92L127.49 4.92Q129.07 4.92 129.92 5.78Q130.78 6.65 130.78 8.42L130.78 8.42L130.78 15.34Q130.78 16.27 131.69 16.51L131.69 16.51L131.90 16.58L131.90 16.82L126.24 16.82L126.24 16.58L126.55 16.49Q127.39 16.22 127.39 15.31L127.39 15.31L127.39 7.66Q127.39 6.12 125.86 6.12L125.86 6.12Q124.80 6.12 123.55 7.18L123.55 7.18L123.55 15.34Q123.55 16.27 124.39 16.51L124.39 16.51L124.61 16.58L124.61 16.82ZM137.93 17.18L137.93 17.18Q136.51 17.18 135.38 16.55Q134.26 15.91 133.60 14.58Q132.94 13.25 132.94 11.16L132.94 11.16Q132.94 9.05 133.68 7.67Q134.42 6.29 135.65 5.60Q136.87 4.92 138.31 4.92L138.31 4.92Q139.15 4.92 139.92 5.09Q140.69 5.26 141.29 5.59L141.29 5.59L141.29 2.47Q141.29 1.97 141.13 1.73Q140.98 1.49 140.47 1.39L140.47 1.39L140.02 1.30L140.02 1.06L144.38 0L144.65 0.22L144.55 3.58L144.55 15.31Q144.55 15.79 144.72 16.09Q144.89 16.39 145.34 16.51L145.34 16.51L145.56 16.58L145.56 16.82L141.46 17.09L141.24 16.22Q140.59 16.66 139.76 16.92Q138.94 17.18 137.93 17.18ZM139.32 16.30L139.32 16.30Q140.33 16.30 141.17 15.70L141.17 15.70L141.17 6.17Q140.28 5.59 139.34 5.59L139.34 5.59Q138.19 5.59 137.38 6.92Q136.56 8.26 136.56 11.11L136.56 11.11Q136.56 13.97 137.33 15.13Q138.10 16.30 139.32 16.30ZM150.77 17.18L150.77 17.18Q149.59 17.18 148.66 16.91Q147.72 16.63 146.93 16.22L146.93 16.22L146.95 13.37L147.19 13.37L148.01 14.81Q148.54 15.77 149.17 16.24Q149.81 16.70 150.79 16.70L150.79 16.70Q151.94 16.70 152.65 16.19Q153.36 15.67 153.36 14.81L153.36 14.81Q153.36 14.02 152.86 13.51Q152.35 13.01 150.98 12.60L150.98 12.60L149.98 12.29Q148.51 11.86 147.67 10.94Q146.83 10.03 146.83 8.71L146.83 8.71Q146.83 7.13 148.08 6.02Q149.33 4.92 151.66 4.92L151.66 4.92Q152.59 4.92 153.42 5.12Q154.25 5.33 155.02 5.74L155.02 5.74L154.87 8.33L154.63 8.33L153.79 6.84Q153.34 6.05 152.89 5.72Q152.45 5.40 151.56 5.40L151.56 5.40Q150.74 5.40 150.02 5.86Q149.30 6.31 149.30 7.15L149.30 7.15Q149.30 7.97 149.92 8.45Q150.53 8.93 151.73 9.34L151.73 9.34L152.81 9.65Q154.54 10.18 155.28 11.10Q156.02 12.02 156.02 13.32L156.02 13.32Q156.02 15.07 154.64 16.13Q153.26 17.18 150.77 17.18Z" transform="translate(44.705882352941174 15.588)"></path></svg>